<svg width="46" height="55" viewBox="0 0 46 55" fill="none" xmlns="http://www.w3.org/2000/svg">
<path d="M5.09998 23.1502C5.0943 22.5081 5.25935 21.8758 5.57849 21.3182C5.8969 20.7619 6.35701 20.2986 6.91248 19.9773L6.91345 19.9783L21.389 11.8445L21.3939 11.8416C21.9466 11.5231 22.574 11.3553 23.2123 11.3553C23.8504 11.3554 24.4771 11.5232 25.0297 11.8416L25.0345 11.8445L39.5101 19.9773C40.0659 20.2986 40.5265 20.7616 40.8451 21.3182C41.1642 21.8758 41.3293 22.5081 41.3236 23.1502V23.4441L41.3187 23.9549C41.2259 29.2357 39.7748 34.4073 37.101 38.9715C34.3408 43.683 30.3765 47.579 25.6136 50.2596H25.6127L24.9965 50.6082C24.4515 50.9092 23.8382 51.0659 23.2152 51.0623H23.2045C22.569 51.0722 21.941 50.9154 21.3851 50.6082L20.7699 50.2596H20.7689C16.0139 47.5738 12.0578 43.6765 9.30505 38.9656C6.55224 34.2545 5.10119 28.8981 5.09998 23.4441V23.1502Z" stroke="#00B37E"/>
<g clip-path="url(#clip0_524_305)">
<path d="M15.9031 9.18227C15.9671 9.13475 16.0146 9.06847 16.0389 8.99271C16.0632 8.91696 16.0631 8.83552 16.0386 8.75983C16.0141 8.68414 15.9664 8.61798 15.9023 8.57064C15.8382 8.5233 15.7608 8.49715 15.681 8.49585L14.1309 8.4375C14.1233 8.43698 14.116 8.43427 14.1099 8.4297C14.1038 8.42514 14.0991 8.41891 14.0965 8.41176L13.5608 6.97029C13.5339 6.89696 13.485 6.83363 13.4208 6.78889C13.3566 6.74415 13.2801 6.72015 13.2017 6.72015C13.1234 6.72015 13.0469 6.74415 12.9827 6.78889C12.9184 6.83363 12.8696 6.89696 12.8426 6.97029L12.3087 8.41691C12.3061 8.42406 12.3014 8.43029 12.2953 8.43485C12.2892 8.43942 12.2819 8.44213 12.2743 8.44265L10.7242 8.501C10.6444 8.5023 10.567 8.52845 10.5029 8.57579C10.4388 8.62313 10.3911 8.68929 10.3666 8.76498C10.3421 8.84067 10.342 8.9221 10.3663 8.99786C10.3906 9.07362 10.4381 9.1399 10.5021 9.18741L11.718 10.1398C11.7241 10.1446 11.7286 10.151 11.7311 10.1584C11.7335 10.1657 11.7338 10.1735 11.7318 10.181L11.3133 11.6585C11.2916 11.7337 11.2937 11.8138 11.3193 11.8878C11.3449 11.9618 11.3927 12.0262 11.4564 12.0721C11.52 12.1181 11.5962 12.1434 11.6748 12.1446C11.7534 12.1458 11.8304 12.1229 11.8954 12.0789L13.1802 11.2209C13.1865 11.2166 13.1941 11.2142 13.2017 11.2142C13.2094 11.2142 13.2169 11.2166 13.2233 11.2209L14.5081 12.0789C14.5722 12.1244 14.649 12.1488 14.7277 12.1488C14.8064 12.1488 14.8831 12.1244 14.9473 12.0789C15.0109 12.0334 15.0588 11.9694 15.0844 11.8956C15.11 11.8219 15.112 11.742 15.0902 11.6671L14.6683 10.1844C14.666 10.177 14.6662 10.169 14.6686 10.1617C14.6711 10.1543 14.6758 10.1479 14.682 10.1432L15.9031 9.18227Z" fill="#FBA94C"/>
</g>
<g clip-path="url(#clip1_524_305)">
<path d="M35.5372 9.18227C35.6012 9.13475 35.6487 9.06847 35.673 8.99271C35.6973 8.91696 35.6971 8.83552 35.6726 8.75983C35.6481 8.68414 35.6005 8.61798 35.5363 8.57064C35.4722 8.5233 35.3948 8.49715 35.315 8.49585L33.7649 8.4375C33.7573 8.43698 33.75 8.43427 33.7439 8.4297C33.7378 8.42514 33.7331 8.41891 33.7305 8.41176L33.1949 6.97029C33.168 6.89696 33.1191 6.83363 33.0549 6.78889C32.9906 6.74415 32.9141 6.72015 32.8358 6.72015C32.7574 6.72015 32.6809 6.74415 32.6167 6.78889C32.5525 6.83363 32.5036 6.89696 32.4767 6.97029L31.9428 8.41691C31.9401 8.42406 31.9355 8.43029 31.9294 8.43485C31.9233 8.43942 31.916 8.44213 31.9083 8.44265L30.3583 8.501C30.2785 8.5023 30.2011 8.52845 30.1369 8.57579C30.0728 8.62313 30.0251 8.68929 30.0006 8.76498C29.9761 8.84067 29.976 8.9221 30.0003 8.99786C30.0246 9.07362 30.0721 9.1399 30.1361 9.18741L31.352 10.1398C31.3581 10.1446 31.3627 10.151 31.3651 10.1584C31.3676 10.1657 31.3678 10.1735 31.3658 10.181L30.9473 11.6585C30.9256 11.7337 30.9277 11.8138 30.9533 11.8878C30.9789 11.9618 31.0268 12.0262 31.0904 12.0721C31.154 12.1181 31.2303 12.1434 31.3088 12.1446C31.3874 12.1458 31.4644 12.1229 31.5294 12.0789L32.8142 11.2209C32.8206 11.2166 32.8281 11.2142 32.8358 11.2142C32.8435 11.2142 32.851 11.2166 32.8573 11.2209L34.1421 12.0789C34.2063 12.1244 34.283 12.1488 34.3617 12.1488C34.4404 12.1488 34.5172 12.1244 34.5813 12.0789C34.6449 12.0334 34.6928 11.9694 34.7184 11.8956C34.744 11.8219 34.7461 11.742 34.7243 11.6671L34.3023 10.1844C34.3001 10.177 34.3002 10.169 34.3027 10.1617C34.3051 10.1543 34.3098 10.1479 34.3161 10.1432L35.5372 9.18227Z" fill="#FBA94C"/>
</g>
<g clip-path="url(#clip2_524_305)">
<path d="M26.5012 4.81326C26.5881 4.75018 26.6526 4.66218 26.6856 4.5616C26.7186 4.46102 26.7184 4.35291 26.6852 4.25242C26.6519 4.15192 26.5872 4.06409 26.5001 4.00124C26.4131 3.93839 26.308 3.90367 26.1996 3.90194L24.0953 3.82448C24.085 3.82378 24.0751 3.82019 24.0668 3.81412C24.0585 3.80806 24.0521 3.79979 24.0486 3.7903L23.3214 1.87653C23.2849 1.77917 23.2185 1.69509 23.1313 1.63569C23.0441 1.57629 22.9403 1.54443 22.8339 1.54443C22.7275 1.54443 22.6237 1.57629 22.5365 1.63569C22.4493 1.69509 22.383 1.77917 22.3464 1.87653L21.6216 3.79714C21.618 3.80662 21.6117 3.81489 21.6034 3.82096C21.5951 3.82702 21.5852 3.83062 21.5748 3.83131L19.4705 3.90878C19.3622 3.9105 19.2571 3.94522 19.17 4.00808C19.083 4.07093 19.0183 4.15876 18.985 4.25925C18.9518 4.35974 18.9516 4.46786 18.9846 4.56844C19.0176 4.66902 19.082 4.75702 19.1689 4.8201L20.8196 6.08456C20.8279 6.09089 20.8341 6.09945 20.8374 6.10916C20.8407 6.11888 20.841 6.12934 20.8383 6.13923L20.2702 8.10085C20.2407 8.20074 20.2436 8.30705 20.2783 8.4053C20.3131 8.50356 20.3781 8.58899 20.4644 8.64999C20.5508 8.71098 20.6543 8.74457 20.761 8.74619C20.8676 8.74781 20.9722 8.71738 21.0605 8.65904L22.8047 7.51989C22.8133 7.5141 22.8235 7.51101 22.8339 7.51101C22.8444 7.51101 22.8546 7.5141 22.8631 7.51989L24.6074 8.65904C24.6944 8.71937 24.7986 8.75179 24.9055 8.75179C25.0123 8.75179 25.1165 8.71937 25.2036 8.65904C25.29 8.59862 25.355 8.5136 25.3898 8.41568C25.4245 8.31776 25.4273 8.21175 25.3977 8.11224L24.8248 6.14379C24.8218 6.13391 24.822 6.12335 24.8253 6.11357C24.8286 6.10378 24.835 6.09524 24.8435 6.08911L26.5012 4.81326Z" fill="#FBA94C"/>
</g>
<path d="M7.82373 24.0219C7.81893 23.4879 7.95614 22.9613 8.22217 22.4975C8.48724 22.0353 8.87097 21.6514 9.3335 21.3842L21.6909 14.4535L21.6958 14.4506C22.1564 14.1856 22.6793 14.0464 23.2114 14.0463C23.7437 14.0463 24.2672 14.1855 24.728 14.4506L24.7329 14.4535L37.0903 21.3842C37.5527 21.6513 37.9356 22.0355 38.2007 22.4975C38.4667 22.9613 38.6049 23.4879 38.6001 24.0219V24.2719L38.5845 25.14C38.4359 29.4756 37.2081 33.7116 35.0054 37.4643C32.6558 41.467 29.2815 44.7765 25.2271 47.0541L25.2261 47.0551L24.7007 47.351C24.3032 47.5702 23.8618 47.6977 23.4097 47.724L23.2144 47.7289H23.2036C22.6739 47.7371 22.1513 47.6065 21.688 47.351H21.687L21.1626 47.0551L20.4116 46.6147C16.6975 44.3559 13.6007 41.2108 11.4038 37.4584C9.06049 33.4558 7.82475 28.9054 7.82373 24.2719V24.0219Z" stroke="#FBA94C"/>
<path fill-rule="evenodd" clip-rule="evenodd" d="M20.9734 38.4737C20.9734 38.1019 21.2758 37.8006 21.6489 37.8006H24.3511C24.7242 37.8006 25.0267 38.1019 25.0267 38.4737C25.0267 38.8454 24.7242 39.1468 24.3511 39.1468H21.6489C21.2758 39.1468 20.9734 38.8454 20.9734 38.4737Z" fill="#FBA94C"/>
<path fill-rule="evenodd" clip-rule="evenodd" d="M22.1511 20.7709C22.39 20.5746 22.6901 20.4671 23 20.4671C23.3109 20.4671 23.6121 20.5753 23.8514 20.773C24.6902 21.4536 26.506 23.141 27.5106 25.7428C28.5298 28.3824 28.6851 31.8928 26.2902 36.1126C26.1703 36.3238 25.9457 36.4544 25.7022 36.4544H20.2978C20.0564 36.4544 19.8333 36.326 19.7126 36.1176C17.2687 31.8968 17.4184 28.3813 18.4489 25.7377C19.4634 23.1354 21.3022 21.4484 22.1511 20.7709ZM22.9999 21.8183L22.9998 21.8184C22.2421 22.4223 20.6026 23.9312 19.7083 26.2251C18.854 28.4166 18.6518 31.3923 20.6929 35.1082H25.303C27.301 31.3937 27.0962 28.4187 26.2496 26.2262C25.3655 23.9362 23.7517 22.4286 22.9999 21.8183Z" fill="#00B37E"/>
<path fill-rule="evenodd" clip-rule="evenodd" d="M18.8645 28.4832C19.1509 28.7214 19.1892 29.1459 18.95 29.4312L16.3041 32.5882C16.3042 32.5889 16.3044 32.5896 16.3045 32.5904L17.3427 37.2747L19.8757 35.2557C20.167 35.0234 20.5922 35.0705 20.8252 35.3608C21.0583 35.6511 21.0111 36.0746 20.7197 36.3069L18.1864 38.3262C18.0074 38.4687 17.7946 38.5638 17.5687 38.6019C17.3428 38.6401 17.1108 38.6204 16.8946 38.5447C16.6784 38.469 16.4851 38.3397 16.3329 38.1691C16.1807 37.9984 16.0745 37.792 16.0244 37.5692L16.0239 37.5671L14.987 32.8885C14.9383 32.6883 14.9376 32.4795 14.985 32.2789C15.0328 32.0762 15.1284 31.8878 15.2638 31.7292L17.913 28.5683C18.1522 28.283 18.5782 28.2449 18.8645 28.4832Z" fill="#00B37E"/>
<path fill-rule="evenodd" clip-rule="evenodd" d="M27.0852 28.4154C27.3719 28.1774 27.7978 28.216 28.0367 28.5016L30.7364 31.7295C30.8716 31.888 30.9671 32.0763 31.0149 32.2789C31.0623 32.4795 31.0616 32.6883 31.0129 32.8885L29.976 37.5671L29.9755 37.5692C29.9254 37.792 29.8192 37.9984 29.667 38.1691C29.5148 38.3397 29.3215 38.469 29.1053 38.5447C28.8891 38.6204 28.6571 38.6401 28.4312 38.6019C28.2053 38.5638 27.9928 38.4689 27.8138 38.3264L25.2802 36.3069C24.9888 36.0746 24.9416 35.6511 25.1747 35.3608C25.4077 35.0705 25.8329 35.0234 26.1242 35.2557L28.6572 37.2747L29.6954 32.5903C29.6955 32.5896 29.6957 32.5889 29.6958 32.5882L26.9987 29.3634C26.7599 29.0778 26.7986 28.6534 27.0852 28.4154Z" fill="#00B37E"/>
<path d="M22.9999 28.7137C23.5595 28.7137 24.0132 28.2617 24.0132 27.7041C24.0132 27.1465 23.5595 26.6944 22.9999 26.6944C22.4403 26.6944 21.9866 27.1465 21.9866 27.7041C21.9866 28.2617 22.4403 28.7137 22.9999 28.7137Z" fill="#FBA94C"/>
<defs>
<clipPath id="clip0_524_305">
<rect width="6.2002" height="6.17774" fill="white" transform="translate(10.0474 6.30276)"/>
</clipPath>
<clipPath id="clip1_524_305">
<rect width="6.2002" height="6.17774" fill="white" transform="translate(29.6814 6.30276)"/>
</clipPath>
<clipPath id="clip2_524_305">
<rect width="10.3337" height="10.2962" fill="white" transform="translate(17.7976)"/>
</clipPath>
</defs>
</svg>
